{"title":"Jackpot (2013) 1CD DVDScr Rip Xvid MP3[VikkyMaxx}","uid":9349053,"size":747628970,"categoryP":"video","categoryS":"movies","magnet":"?xt=urn:btih:649c9276f1738547b362220de685e5f48c82e736&amp;dn=Jackpot+%282013%29+1CD+DVDScr+Rip+Xvid+MP3%5BVikkyMaxx%7D&amp;tr=udp%3A%2F%2Ftracker.openbittorrent.com%3A80&amp;tr=udp%3A%2F%2Fopen.demonii.com%3A1337&amp;tr=udp%3A%2F%2Ftracker.coppersurfer.tk%3A6969&amp;tr=udp%3A%2F%2Fexodus.desync.com%3A6969","seeders":0,"leechers":0,"uploader":"shailendramaxx","files":17,"time":1387088462,"description":"Complete name                            : Jackpot (2013) 1CD DVDScr Rip Xvid MP3\nFormat                                   : AVI\nFormat/Info                              : Audio Video Interleave\nFile size                                : 701 MiB\nDuration                                 : 1h 27mn\nOverall bit rate                         : 1 124 Kbps\n\nVideo:-\n\nID                                       : 0\nFormat                                   : MPEG-4 Visual\nFormat profile                           : Advanced Simple@L5\nFormat settings, BVOP                    : 2\nFormat settings, QPel                    : No\nFormat settings, GMC                     : No warppoints\nFormat settings, Matrix                  : Default (H.263)\nCodec ID                                 : XVID\nCodec ID/Hint                            : XviD\nDuration                                 : 1h 27mn\nBit rate                                 : 991 Kbps\nWidth                                    : 720 pixels\nHeight                                   : 296 pixels\nDisplay aspect ratio                     : 2.40:1\nFrame rate                               : 23.976 fps\nColor space                              : YUV\nChroma subsampling                       : 4:2:0\nBit depth                                : 8 bits\nScan type                                : Progressive\nCompression mode                         : Lossy\nBits/(Pixel*Frame)                       : 0.194\nStream size                              : 617 MiB (88%)\nWriting library                          : XviD 1.2.1 (UTC 2008-12-04)\n\nAudio:-\n\nID                                       : 1\nFormat                                   : MPEG Audio\nFormat version                           : Version 1\nFormat profile                           : Layer 3\nMode                                     : Joint stereo\nMode extension                           : MS Stereo\nCodec ID                                 : 55\nCodec ID/Hint                            : MP3\nDuration                                 : 1h 27mn\nBit rate mode                            : Constant\nBit rate                                 : 128 Kbps\nChannel(s)                               : 2 channels\nSampling rate                            : 48.0 KHz\nCompression mode                         : Lossy\nStream size                              : 79.7 MiB (11%)\nAlignment                                : Aligned on interleaves\nInterleave, duration                     : 167 ms (4.00 video frames)\nInterleave, preload duration             : 216 ms\nTitle                                    : jackpot 80kbps\nWriting library                          : LAME3.99r\nEncoding settings                        : -m j -V 4 -q 2 -lowpass 17 -b 128\nLANGUAGE                                 : HINDI\n\nSCREENS:-\n\n[URL=http://s1128.photobucket.com/user/vikkymaxx/media/Jackpot%202013/aCLgR3J_zpsa539f189.png.html][IMG]http://i1128.photobucket.com/albums/m482/vikkymaxx/Jackpot%202013/aCLgR3J_zpsa539f189.png[/IMG][/URL]\n\n[URL=http://s1128.photobucket.com/user/vikkymaxx/media/Jackpot%202013/0FIzNMc_zpsed4f54b7.png.html][IMG]http://i1128.photobucket.com/albums/m482/vikkymaxx/Jackpot%202013/0FIzNMc_zpsed4f54b7.png[/IMG][/URL]\n\n[URL=http://s1128.photobucket.com/user/vikkymaxx/media/Jackpot%202013/hFwkY9z_zps6ec53eeb.png.html][IMG]http://i1128.photobucket.com/albums/m482/vikkymaxx/Jackpot%202013/hFwkY9z_zps6ec53eeb.png[/IMG][/URL]\n\n[URL=http://s1128.photobucket.com/user/vikkymaxx/media/Jackpot%202013/E10yjnI_zpsd3b73e6a.png.html][IMG]http://i1128.photobucket.com/albums/m482/vikkymaxx/Jackpot%202013/E10yjnI_zpsd3b73e6a.png[/IMG][/URL]\n\n[URL=http://s1128.photobucket.com/user/vikkymaxx/media/Jackpot%202013/FLni628_zps8cf1a00f.png.html][IMG]http://i1128.photobucket.com/albums/m482/vikkymaxx/Jackpot%202013/FLni628_zps8cf1a00f.png[/IMG][/URL]\n\n[URL=http://s1128.photobucket.com/user/vikkymaxx/media/Jackpot%202013/DrnDiOH_zps165a0167.png.html][IMG]http://i1128.photobucket.com/albums/m482/vikkymaxx/Jackpot%202013/DrnDiOH_zps165a0167.png[/IMG][/URL]\n\n[URL=http://s1128.photobucket.com/user/vikkymaxx/media/Jackpot%202013/oInL03r_zpsf643fd00.png.html][IMG]http://i1128.photobucket.com/albums/m482/vikkymaxx/Jackpot%202013/oInL03r_zpsf643fd00.png[/IMG][/URL]\n\n[URL=http://s1128.photobucket.com/user/vikkymaxx/media/Jackpot%202013/S1ksE5x_zps03cc490d.png.html][IMG]http://i1128.photobucket.com/albums/m482/vikkymaxx/Jackpot%202013/S1ksE5x_zps03cc490d.png[/IMG][/URL]\n\n[URL=http://s1128.photobucket.com/user/vikkymaxx/media/Jackpot%202013/Vo6op6l_zps0c6a7439.png.html][IMG]http://i1128.photobucket.com/albums/m482/vikkymaxx/Jackpot%202013/Vo6op6l_zps0c6a7439.png[/IMG][/URL]\n\n[URL\n\n\n\n ********** PLEASE SEED AS LONG AS YOU CAN AFTER DOWNLOAD *******\n            \n               ***** THANK YOU REGARDS - VIKKYMAXX *****","torrent":{"xt":"urn:btih:649c9276f1738547b362220de685e5f48c82e736","amp;dn":"Jackpot+%282013%29+1CD+DVDScr+Rip+Xvid+MP3%5BVikkyMaxx%7D","amp;tr":["udp%3A%2F%2Ftracker.openbittorrent.com%3A80","udp%3A%2F%2Fopen.demonii.com%3A1337","udp%3A%2F%2Ftracker.coppersurfer.tk%3A6969","udp%3A%2F%2Fexodus.desync.com%3A6969"],"infoHash":"649c9276f1738547b362220de685e5f48c82e736","infoHashBuffer":{"type":"Buffer","data":[100,156,146,118,241,115,133,71,179,98,34,13,230,133,229,244,140,130,231,54]},"announce":[],"urlList":[]}}